<?xml version="1.0" standalone="no"?>
<svg viewBox="0 0 200 200" xmlns="http://www.w3.org/2000/svg">
  <path fill="#FFFCED" d="M41.3,-66.5C54.6,-63.8,67.4,-55,70.1,-42.9C72.7,-30.9,65.2,-15.4,66.1,0.5C66.9,16.4,76,32.8,72.6,43.4C69.1,54.1,53,59.1,38.8,65.4C24.7,71.8,12.3,79.6,-0.2,79.9C-12.7,80.2,-25.4,73.1,-38.9,66.3C-52.3,59.6,-66.6,53.1,-76.7,42.1C-86.8,31.1,-92.8,15.5,-92.6,0.1C-92.5,-15.4,-86.2,-30.8,-75.9,-41.4C-65.6,-52,-51.2,-57.9,-37.9,-60.6C-24.5,-63.4,-12.3,-63,0.8,-64.5C14,-65.9,27.9,-69.2,41.3,-66.5Z" transform="translate(100 100)" />
</svg>
