<?xml version="1.0" standalone="no"?>
<svg viewBox="0 0 200 200" xmlns="http://www.w3.org/2000/svg">
  <path fill="#FFFCED" d="M43.4,-73.1C56.2,-67.7,66.6,-56.1,75.4,-42.8C84.2,-29.6,91.5,-14.8,90.4,-0.7C89.2,13.5,79.6,27,71.4,41.3C63.2,55.5,56.3,70.6,44.7,78.7C33,86.8,16.5,87.8,0,87.9C-16.5,87.9,-33.1,87,-45,79C-56.9,71.1,-64.1,56.1,-72,41.8C-79.9,27.5,-88.5,13.7,-90.3,-1C-92,-15.7,-86.8,-31.4,-77.2,-42.9C-67.6,-54.4,-53.7,-61.6,-40.1,-66.5C-26.5,-71.4,-13.3,-74,1,-75.8C15.3,-77.5,30.5,-78.4,43.4,-73.1Z" transform="translate(100 100)" />
</svg>
